<?xml version="1.0" standalone="no"?>
<!DOCTYPE svg PUBLIC "-//W3C//DTD SVG 20010904//EN"
 "http://www.w3.org/TR/2001/REC-SVG-20010904/DTD/svg10.dtd">
<svg version="1.0" xmlns="http://www.w3.org/2000/svg"
 width="1024.000000pt" height="658.000000pt" viewBox="0 0 1024.000000 658.000000"
 preserveAspectRatio="xMidYMid meet">

<g transform="translate(0.000000,658.000000) scale(0.100000,-0.100000)"
fill="#ff0000" stroke="none">
<path d="M0 3290 l0 -3290 2190 0 2190 0 0 370 0 370 -1820 0 -1820 0 0 2550
0 2550 4380 0 4380 0 0 -2550 0 -2550 -2190 0 -2190 0 0 -370 0 -370 2560 0
2560 0 0 3290 0 3290 -5120 0 -5120 0 0 -3290z"/>
<path d="M1460 3290 l0 -1830 370 0 370 0 0 730 0 730 730 0 730 0 0 1100 0
1100 -1100 0 -1100 0 0 -1830z m1460 730 l0 -360 -360 0 -360 0 0 360 0 360
360 0 360 0 0 -360z"/>
<path d="M4380 4750 l0 -370 370 0 370 0 0 -1460 0 -1460 370 0 370 0 0 1460
0 1460 961 0 c900 0 961 -1 955 -17 -4 -9 -274 -497 -601 -1083 l-595 -1067 0
-376 0 -377 1100 0 1100 0 0 370 0 370 -620 0 -620 0 26 47 c63 114 129 231
151 265 12 21 23 39 23 41 0 2 234 415 520 918 l520 914 0 368 0 367 -2200 0
-2200 0 0 -370z"/>
</g>
</svg>
